:SAMPLES-PER-SECOND 30
:FULLY-SPECIFIED
:DEGREES
188
root  61.971 24.6569 0.530499 120.803 -86.1936 -147.428
RightUpLeg  -52.4519 -15.7643 5.52
RightLeg  82.2899 -1.46856 -17.0645
RightFoot  -6.64167 0.244276 -7.07187
RightToes  0.000482159 0.542163 -0.142577
Spine  44.0563 -2.39774 6.54633
Spine1  -2.13186 -0.689619 -0.877245
HEad  -10.6284 5.46442 -6.60241
LeftShoulder1  9.60946 -14.9346 -45.4328
LeftArm  -2.25902 8.58421 -21.571
LeftForeArm  34.0822 -16.1926 -4.9311
LeftHand  -0.25398 0.0180481 5.50724
RightShoulder  4.69016 9.13867 31.1507
RightArm  -2.78704 -8.03766 40.3617
RightForeArm  8.61897 16.9002 5.52857
RightHand  -1.40489 4.22995 -17.1746
LeftUpLeg  -53.6014 7.39368 0.664383
LeftLeg  76.6702 0.742647 5.01147
LeftFoot  1.77254 -0.498407 4.23643
LeftToes  1.06246e-005 4.65855e-005 -8.18503e-006
189
root  61.9758 24.6506 0.534121 120.702 -86.1816 -147.383
RightUpLeg  -52.4106 -15.736 5.5076
RightLeg  82.2998 -1.47061 -17.0809
RightFoot  -6.61983 0.247428 -7.07204
RightToes  0.000482159 0.542163 -0.142577
Spine  44.0392 -2.40906 6.55505
Spine1  -2.14278 -0.683972 -0.959479
HEad  -10.3054 5.35908 -6.4725
LeftShoulder1  9.58033 -14.9463 -45.2598
LeftArm  -1.80374 8.42698 -21.4345
LeftForeArm  33.4083 -16.4357 -4.91099
LeftHand  -0.25398 0.0180481 5.50724
RightShoulder  4.71198 9.23553 31.0384
RightArm  -2.4542 -7.8555 40.4047
RightForeArm  8.48135 17.3145 5.4258
RightHand  -1.42065 4.41375 -17.0529
LeftUpLeg  -53.5589 7.4012 0.671548
LeftLeg  76.6795 0.747385 5.0439
LeftFoot  1.75865 -0.499746 4.25714
LeftToes  1.06246e-005 4.65855e-005 -8.18503e-006
190
root  61.9823 24.6458 0.539038 120.733 -86.1848 -147.466
RightUpLeg  -52.3854 -15.6721 5.46722
RightLeg  82.3045 -1.47388 -17.1043
RightFoot  -6.50179 0.256492 -7.09395
RightToes  0.000482159 0.542163 -0.142577
Spine  44.0502 -2.41136 6.56481
Spine1  -2.20855 -0.662492 -1.05259
HEad  -9.92575 5.29058 -6.38385
LeftShoulder1  9.55927 -14.951 -45.1442
LeftArm  -1.52098 8.21237 -21.3184
LeftForeArm  33.0378 -16.799 -4.80934
LeftHand  -0.25398 0.0180481 5.50724
RightShoulder  4.78029 9.43243 31.003
RightArm  -2.00385 -7.79457 40.2988
RightForeArm  8.25392 17.9138 5.27662
RightHand  -1.42261 4.57073 -16.8196
LeftUpLeg  -53.5178 7.39093 0.658048
LeftLeg  76.6749 0.753727 5.0884
LeftFoot  1.77699 -0.500677 4.27268
LeftToes  1.06246e-005 4.65855e-005 -8.18503e-006
191
root  61.9888 24.6429 0.544655 121.016 -86.158 -147.751
RightUpLeg  -52.4028 -15.5207 5.45185
RightLeg  82.3033 -1.48313 -17.1736
RightFoot  -6.39309 0.260332 -7.00991
RightToes  0.000482159 0.542163 -0.142577
Spine  44.1459 -2.38381 6.59212
Spine1  -2.43011 -0.612902 -1.09276
HEad  -9.4573 5.11935 -6.36607
LeftShoulder1  9.58032 -14.9736 -45.1902
LeftArm  -1.3834 7.99844 -21.1649
LeftForeArm  32.9883 -17.2687 -4.63892
LeftHand  -0.25398 0.0180481 5.50724
RightShoulder  4.83516 9.62226 30.8852
RightArm  -1.26072 -7.80417 40.1955
RightForeArm  7.43315 18.691 5.12895
RightHand  -1.39557 4.45764 -16.691
LeftUpLeg  -53.5314 7.37676 0.67169
LeftLeg  76.6726 0.756281 5.10272
LeftFoot  1.82232 -0.499026 4.24904
LeftToes  1.06246e-005 4.65855e-005 -8.18503e-006
192
root  61.9969 24.6419 0.550992 120.915 -86.094 -147.64
RightUpLeg  -52.4078 -15.3475 5.48127
RightLeg  82.2874 -1.49779 -17.2624
RightFoot  -6.34741 0.254319 -6.80165
RightToes  0.000482159 0.542163 -0.142577
Spine  44.3298 -2.3816 6.66454
Spine1  -2.70888 -0.575497 -1.11745
HEad  -9.10986 4.95589 -6.38461
LeftShoulder1  9.58622 -14.9898 -45.1778
LeftArm  -1.16404 7.79852 -21.1187
LeftForeArm  32.7717 -17.8723 -4.43572
LeftHand  -0.25398 0.0180481 5.50724
RightShoulder  4.84321 9.72466 30.6578
RightArm  -0.562136 -7.66904 40.2579
RightForeArm  6.50154 19.4118 5.01404
RightHand  -1.37833 4.32362 -16.7067
LeftUpLeg  -53.558 7.33688 0.740925
LeftLeg  76.6727 0.762654 5.13375
LeftFoot  1.85355 -0.49568 4.19997
LeftToes  1.06246e-005 4.65855e-005 -8.18503e-006
193
root  62.0089 24.6409 0.556995 120.234 -86.0521 -146.972
RightUpLeg  -52.3944 -15.1953 5.49645
RightLeg  82.2598 -1.51443 -17.3338
RightFoot  -6.24734 0.252878 -6.62071
RightToes  0.000482159 0.542163 -0.142577
Spine  44.5458 -2.45237 6.78071
Spine1  -2.93724 -0.568962 -1.26708
HEad  -8.97784 4.9895 -6.3531
LeftShoulder1  9.52976 -14.9881 -44.9047
LeftArm  -0.854707 7.56483 -21.2821
LeftForeArm  32.2768 -18.5197 -4.2425
LeftHand  -0.25398 0.0180481 5.50724
RightShoulder  4.8256 9.73659 30.4897
RightArm  -0.300073 -7.36888 40.4323
RightForeArm  6.23736 19.961 4.90677
RightHand  -1.41024 4.53895 -16.73
LeftUpLeg  -53.5532 7.24681 0.806186
LeftLeg  76.6466 0.782742 5.2208
LeftFoot  1.8712 -0.493845 4.17536
LeftToes  1.06246e-005 4.65855e-005 -8.18503e-006
194
root  62.0221 24.6374 0.563409 119.663 -86.0526 -146.374
RightUpLeg  -52.4664 -14.9385 5.44424
RightLeg  82.2553 -1.52017 -17.3716
RightFoot  -5.9518 0.265801 -6.48896
RightToes  0.000482159 0.542163 -0.142577
Spine  44.7341 -2.5688 6.92608
Spine1  -3.12022 -0.566166 -1.57897
HEad  -8.95791 5.1639 -6.26579
LeftShoulder1  9.4456 -14.9787 -44.5139
LeftArm  -0.561831 7.24433 -21.5111
LeftForeArm  31.8177 -19.1214 -4.07429
LeftHand  -0.25398 0.0180481 5.50724
RightShoulder  4.82172 9.73283 30.4705
RightArm  -0.340544 -7.10077 40.5436
RightForeArm  6.40627 20.5184 4.78501
RightHand  -1.47486 4.97065 -16.7785
LeftUpLeg  -53.5853 7.12373 0.81972
LeftLeg  76.6022 0.801937 5.29472
LeftFoot  1.90726 -0.493496 4.17471
LeftToes  1.06246e-005 4.65855e-005 -8.18503e-006
195
root  62.0335 24.636 0.573619 119.691 -86.0274 -146.286
RightUpLeg  -52.6722 -14.4251 5.32347
RightLeg  82.3006 -1.49043 -17.2316
RightFoot  -5.40724 0.283358 -6.16385
RightToes  0.000482159 0.542163 -0.142577
Spine  44.9586 -2.67519 7.09265
Spine1  -3.31363 -0.5499 -1.8903
HEad  -8.97296 5.2899 -6.23487
LeftShoulder1  9.38418 -14.9547 -44.2707
LeftArm  -0.241005 6.88213 -21.6244
LeftForeArm  31.5544 -19.7668 -3.90103
LeftHand  -0.25398 0.0180481 5.50724
RightShoulder  4.82582 9.74432 30.4699
RightArm  -0.225979 -6.93418 40.5693
RightForeArm  6.08117 21.2255 4.69643
RightHand  -1.52048 5.13682 -17.0219
LeftUpLeg  -53.7177 7.01586 0.835915
LeftLeg  76.572 0.81054 5.32279
LeftFoot  1.95727 -0.490575 4.1347
LeftToes  1.06246e-005 4.65855e-005 -8.18503e-006
196
root  62.0512 24.6411 0.586726 120.185 -85.9285 -146.621
RightUpLeg  -52.9316 -13.6811 5.11945
RightLeg  82.3519 -1.40717 -16.6157
RightFoot  -4.58542 0.29217 -5.47261
RightToes  0.000482159 0.542163 -0.142577
Spine  45.3618 -2.73472 7.23887
Spine1  -3.59752 -0.525038 -2.03855
HEad  -9.04843 5.33038 -6.30745
LeftShoulder1  9.35149 -14.9157 -44.207
LeftArm  0.159521 6.60782 -21.6405
LeftForeArm  31.4044 -20.5498 -3.7103
LeftHand  -0.25398 0.0180481 5.50724
RightShoulder  4.7863 9.67486 30.3604
RightArm  0.204365 -6.73231 40.635
RightForeArm  5.06896 21.9343 4.69087
RightHand  -1.53959 4.97618 -17.4804
LeftUpLeg  -53.8842 6.94442 0.911679
LeftLeg  76.5205 0.834821 5.41631
LeftFoot  2.0224 -0.48349 4.03044
LeftToes  1.06246e-005 4.65855e-005 -8.18503e-006
197
root  62.08 24.6556 0.594763 121.079 -85.8301 -147.292
RightUpLeg  -53.2792 -12.8522 4.78915
RightLeg  82.3623 -1.27442 -15.4107
RightFoot  -3.49647 0.290931 -4.58522
RightToes  0.000482159 0.542163 -0.142577
Spine  45.9804 -2.73152 7.27303
Spine1  -3.99108 -0.479264 -2.06755
HEad  -9.23246 5.37914 -6.34711
LeftShoulder1  9.33694 -14.8985 -44.1781
LeftArm  0.543576 6.45042 -21.6607
LeftForeArm  31.3117 -21.3243 -3.55447
LeftHand  -0.25398 0.0180481 5.50724
RightShoulder  4.68146 9.45029 30.1783
RightArm  0.670394 -6.45989 40.7903
RightForeArm  4.12313 22.4874 4.73175
RightHand  -1.57767 4.92851 -17.974
LeftUpLeg  -54.0917 6.83947 0.984592
LeftLeg  76.3915 0.888105 5.61202
LeftFoot  2.16779 -0.474352 3.89156
LeftToes  1.06246e-005 4.65855e-005 -8.18503e-006
198
root  62.1064 24.6758 0.594787 122.221 -85.8028 -148.006
RightUpLeg  -53.8745 -12.051 4.38661
RightLeg  82.3431 -1.11995 -13.9056
RightFoot  -2.26532 0.28642 -3.79746
RightToes  0.000482159 0.542163 -0.142577
Spine  46.6577 -2.68958 7.20551
Spine1  -4.40942 -0.404495 -2.11098
HEad  -9.61947 5.47385 -6.22647
LeftShoulder1  9.33472 -14.9242 -44.1022
LeftArm  0.86969 6.24532 -21.6926
LeftForeArm  31.2253 -21.8581 -3.47752
LeftHand  -0.25398 0.0180481 5.50724
RightShoulder  4.56223 9.19108 29.9741
RightArm  0.800457 -6.29691 40.9621
RightForeArm  3.92167 23.0071 4.76969
RightHand  -1.63774 5.15509 -18.2558
LeftUpLeg  -54.5054 6.57757 1.01452
LeftLeg  76.2263 0.936572 5.76392
LeftFoot  2.41233 -0.456484 3.66318
LeftToes  1.06246e-005 4.65855e-005 -8.18503e-006
199
root  62.1109 24.7041 0.596059 122.78 -85.7912 -147.865
RightUpLeg  -54.7162 -11.368 4.08468
RightLeg  82.3209 -0.975767 -12.482
RightFoot  -1.11912 0.277758 -3.18655
RightToes  0.000482159 0.542163 -0.142577
Spine  47.2914 -2.67378 7.19573
Spine1  -4.73063 -0.332002 -2.16596
HEad  -10.3443 5.56779 -6.0296
LeftShoulder1  9.32452 -14.9637 -43.9522
LeftArm  1.21209 5.83387 -21.7467
LeftForeArm  31.0823 -22.1378 -3.45576
LeftHand  -0.25398 0.0180481 5.50724
RightShoulder  4.48961 9.07983 29.7106
RightArm  0.479808 -6.36405 41.0817
RightForeArm  4.42056 23.6967 4.84051
RightHand  -1.64147 5.24441 -18.1481
LeftUpLeg  -55.2069 6.16844 1.07474
LeftLeg  76.1168 0.978675 5.90951
LeftFoot  2.60164 -0.413385 3.25072
LeftToes  1.06246e-005 4.65855e-005 -8.18503e-006
200
root  62.091 24.7527 0.607019 122.488 -85.714 -146.665
RightUpLeg  -55.6258 -10.9041 4.00503
RightLeg  82.2567 -0.862953 -11.2765
RightFoot  -0.322235 0.257917 -2.69262
RightToes  0.000482159 0.542163 -0.142577
Spine  47.9774 -2.69467 7.32462
Spine1  -4.92069 -0.278395 -2.13151
HEad  -11.438 5.63721 -5.94923
LeftShoulder1  9.28449 -14.9978 -43.668
LeftArm  1.54429 5.2831 -21.9228
LeftForeArm  30.9829 -22.3741 -3.44264
LeftHand  -0.25398 0.0180481 5.50724
RightShoulder  4.46255 9.11085 29.4022
RightArm  -0.0979727 -6.57578 41.1004
RightForeArm  5.05757 24.5576 4.99407
RightHand  -1.55893 4.9253 -17.7741
LeftUpLeg  -56.0889 5.88317 1.13264
LeftLeg  76.0308 1.1136 6.4938
LeftFoot  2.57275 -0.361639 2.83508
LeftToes  1.06246e-005 4.65855e-005 -8.18503e-006
201
root  62.0534 24.8289 0.624245 122.702 -85.5984 -145.764
RightUpLeg  -56.5722 -10.6943 4.1132
RightLeg  82.0953 -0.791488 -10.3087
RightFoot  -0.0926792 0.234156 -2.38094
RightToes  0.000482159 0.542163 -0.142577
Spine  48.7904 -2.66927 7.4561
Spine1  -5.02005 -0.206414 -1.9849
HEad  -12.7928 5.59068 -5.98962
LeftShoulder1  9.22532 -15.0425 -43.2629
LeftArm  1.69709 4.7743 -22.2361
LeftForeArm  31.15 -22.7957 -3.41471
LeftHand  -0.25398 0.0180481 5.50724
RightShoulder  4.44017 9.14333 29.1284
RightArm  -0.700335 -6.87538 40.951
RightForeArm  5.31541 25.5577 5.2038
RightHand  -1.50135 4.60738 -17.6582
LeftUpLeg  -57.1012 6.02804 0.946889
LeftLeg  75.8498 1.43313 7.85105
LeftFoot  2.38504 -0.360831 2.87812
LeftToes  1.06246e-005 4.65855e-005 -8.18503e-006
202
root  61.9895 24.9212 0.642451 124.121 -85.5232 -145.822
RightUpLeg  -57.6758 -10.6829 4.32248
RightLeg  81.8843 -0.760627 -9.67585
RightFoot  -0.397639 0.222636 -2.35124
RightToes  0.000482159 0.542163 -0.142577
Spine  49.7279 -2.56183 7.4578
Spine1  -5.04163 -0.105573 -1.74256
HEad  -14.4562 5.44981 -6.03755
LeftShoulder1  9.17664 -15.0957 -42.8892
LeftArm  1.45571 4.35368 -22.5092
LeftForeArm  31.7242 -23.5394 -3.41874
LeftHand  -0.25398 0.0180481 5.50724
RightShoulder  4.40462 9.15196 28.8165
RightArm  -1.43932 -7.40499 40.6341
RightForeArm  5.31873 26.9099 5.51195
RightHand  -1.57891 4.79888 -18.2008
LeftUpLeg  -58.3082 6.55831 0.413046
LeftLeg  75.606 1.8631 9.60551
LeftFoot  2.18532 -0.43642 3.56771
LeftToes  1.06246e-005 4.65855e-005 -8.18503e-006
